<?xml version="1.0" encoding="utf-8"?>
<!-- Generator: Adobe Illustrator 14.0.0, SVG Export Plug-In . SVG Version: 6.00 Build 43363)  -->
<!DOCTYPE svg PUBLIC "-//W3C//DTD SVG 1.1//EN" "http://www.w3.org/Graphics/SVG/1.1/DTD/svg11.dtd">
<svg version="1.1" id="Layer_1" xmlns="http://www.w3.org/2000/svg" xmlns:xlink="http://www.w3.org/1999/xlink" x="0px" y="0px"
	 width="500px" height="500px" viewBox="0 0 500 500" enable-background="new 0 0 500 500" xml:space="preserve">
<g id="XMLID_1_">
	<g>
		<path fill="#010101" d="M480.537,28.951c24.32,11.64-149.25,337.7-197.89,335.43c-48.64-2.28-34.311-118.29-78.34-125.32
			c-44.03-7.02-166.21,242.65-185.75,232.15c-19.53-10.5,168.35-393.51,214.56-386.7c46.21,6.82,31.12,117.29,76.77,126.31
			C355.547,219.851,456.207,17.311,480.537,28.951z"/>
	</g>
	<g>
		<path fill="none" stroke="#010101" d="M233.117,84.511c46.21,6.82,31.12,117.29,76.77,126.31
			c45.66,9.03,146.32-193.51,170.65-181.87c24.32,11.64-149.25,337.7-197.89,335.43c-48.64-2.28-34.311-118.29-78.34-125.32
			c-44.03-7.02-166.21,242.65-185.75,232.15C-0.973,460.711,186.907,77.701,233.117,84.511z"/>
	</g>
</g>
</svg>
