<?xml version="1.0" encoding="utf-8"?>
<!-- Generator: Adobe Illustrator 14.0.0, SVG Export Plug-In . SVG Version: 6.00 Build 43363)  -->
<!DOCTYPE svg PUBLIC "-//W3C//DTD SVG 1.1//EN" "http://www.w3.org/Graphics/SVG/1.1/DTD/svg11.dtd">
<svg version="1.1" id="Layer_1" xmlns="http://www.w3.org/2000/svg" xmlns:xlink="http://www.w3.org/1999/xlink" x="0px" y="0px"
	 width="500px" height="500px" viewBox="0 0 500 500" enable-background="new 0 0 500 500" xml:space="preserve">
<g id="XMLID_1_">
	<g>
		<g id="XMLID_2_">
			<g>
				<path fill="#FFFFFF" d="M204.31,239.06C160.28,232.04,38.1,481.71,18.56,471.21C-0.97,460.71,186.91,77.7,233.12,84.51
					c46.21,6.82,31.12,117.29,76.77,126.31c45.66,9.03,146.32-193.51,170.65-181.87c24.32,11.64-149.25,337.7-197.89,335.43
					C234.01,362.1,248.34,246.09,204.31,239.06z"/>
			</g>
			<g>
				<path fill="none" stroke="#010101" d="M480.54,28.95c24.32,11.64-149.25,337.7-197.89,335.43
					c-48.641-2.28-34.311-118.29-78.34-125.32C160.28,232.04,38.1,481.71,18.56,471.21C-0.97,460.71,186.91,77.7,233.12,84.51
					c46.21,6.82,31.12,117.29,76.77,126.31C355.55,219.85,456.21,17.31,480.54,28.95z"/>
			</g>
		</g>
	</g>
</g>
</svg>
